PathFileType	4	(X/Y/Z)	C:/Users/beibeiliu/ov580/test_trc/User3\sequence.7_training_dense_right.trc
DataRate	CameraRate	NumFrames	NumMarkers	Units	OrigDataRate	OrigDataStartFrame	OrigNumFrames
120	120	12	19	mm	120	1	236
Frame#	Time	ThumbCMC			ThumbMCP			ThumbIP			ThumbTip			IndexMCP			IndexPIP			IndexTip			MiddleMCP			MiddlePIP			MiddleTip			RingMCP			RingPIP			RingTip			PinkyMCP			PinkyPIP			PinkyTip			BackHand1			BackHand2			BackHand3	
		X0	Y0	Z0	X1	Y1	Z1	X2	Y2	Z2	X3	Y3	Z3	X4	Y4	Z4	X5	Y5	Z5	X6	Y6	Z6	X7	Y7	Z7	X8	Y8	Z8	X9	Y9	Z9	X10	Y10	Z10	X11	Y11	Z11	X12	Y12	Z12	X13	Y13	Z13	X14	Y14	Z14	X15	Y15	Z15	X16	Y16	Z16	X17	Y17	Z17	X18	Y18	Z18	
0	0	117.662	-47.0392	43.2743	94.8324	-59.0672	20.5292	83.2884	-70.9826	-5.16033	77.6604	-81.8931	-24.0344	131.663	-40.7803	-34.3065	125.916	-49.5463	-63.4068	119.028	-57.1968	-83.5679	160.314	-42.4303	-39.0534	156.251	-50.093	-67.2047	157.52	-66.5873	-96.0939	175.942	-50.7532	-31.0563	178.9	-58.0971	-56.9845	183.2	-72.2726	-81.6421	193.829	-59.6986	-13.7312	204.155	-67.4009	-34.0439	212.34	-78.7806	-51.6635	175.253	-34.0134	18.4103	175.783	-27.0885	48.9876	143.624	-24.9619	32.6209	
1	0.00833333	115.676	-46.8259	38.5033	98.9473	-58.6826	21.8556	84.9144	-70.0961	-6.37324	74.2284	-81.2278	-21.3592	131.491	-41.4012	-34.0843	123.683	-47.6809	-63.0314	122.363	-59.2627	-86.4179	156.407	-42.1248	-38.278	155.383	-51.5987	-70.8451	156.626	-66.8329	-97.9747	173.692	-50.4296	-33.4424	182.81	-58.5366	-53.5192	181.556	-72.1106	-81.1601	192.803	-60.3735	-13.152	204.23	-68.1586	-35.0602	207.884	-79.9693	-55.3158	174.869	-34.6307	18.5042	176.022	-28.3777	48.6096	143.35	-24.0924	29.397	
2	0.0166667	114.791	-46.2808	43.905	99.6461	-59.0022	19.5328	83.3126	-69.3411	-5.20757	77.0365	-79.7627	-22.8318	132.009	-41.3901	-34.3927	123.158	-46.5068	-59.2686	123.042	-57.6315	-83.4705	156.857	-42.9439	-43.2619	155.126	-51.3721	-70.3067	156.864	-67.8124	-98.9139	176.58	-51.0177	-31.7147	178.888	-57.7458	-53.8561	182.092	-72.529	-79.6117	193.314	-59.454	-14.6337	203.371	-68.6669	-32.5343	208.167	-78.4202	-51.9324	176.094	-34.8674	17.4521	179.602	-28.5991	45.9473	145.749	-23.9541	31.0341	
3	0.025	113.897	-46.5589	40.7234	97.1831	-58.6153	21.971	83.9936	-69.3926	-6.68758	74.7253	-80.7354	-23.7272	129.836	-40.6298	-32.7526	123.101	-48.0725	-63.4453	124.047	-58.3145	-85.2894	160.634	-43.0263	-41.0603	159.039	-52.5142	-71.1056	159.07	-68.2682	-96.8357	175.16	-49.6986	-33.8559	180.368	-58.4678	-58.0586	180.656	-72.5078	-80.5707	193.02	-59.1165	-13.6376	202.125	-67.0185	-31.4036	209.491	-80.6187	-55.4792	173.487	-32.4552	16.7954	177.646	-29.8767	48.5307	141.833	-24.8139	27.2606	
4	0.0333333	112.919	-45.9056	39.1101	98.2169	-58.6477	20.7324	83.5309	-69.215	-5.41412	76.0973	-81.3111	-24.7383	131.368	-41.0515	-36.8597	123.096	-46.4308	-61.082	124.401	-58.5753	-84.6543	155.642	-41.5362	-38.4902	156.548	-52.5876	-71.3633	155.839	-66.2722	-96.402	174.069	-50.1111	-29.2614	177.406	-58.189	-59.205	181.024	-72.2381	-82.7331	194.116	-59.7031	-11.2085	203.625	-67.4312	-36.363	209.334	-81.8019	-55.4288	173.729	-32.9239	19.6515	180.557	-28.0262	47.8421	146.795	-25.3321	30.8725	
5	0.0416667	113.649	-46.6945	37.9759	100.207	-59.0004	19.8453	86.0013	-69.7306	-1.72676	77.7091	-80.7389	-21.8741	128.388	-41.1905	-35.3664	127.21	-48.1127	-63.4332	118.352	-58.6946	-87.7721	158.124	-42.131	-38.7892	159.083	-51.0108	-68.3335	155.417	-65.9253	-95.0456	173.408	-49.477	-33.0861	180.616	-56.7943	-56.2413	179.027	-70.5446	-79.1679	196.371	-59.415	-14.5878	201.973	-65.6426	-33.4142	212.002	-81.4276	-56.7041	177.827	-34.4555	16.9326	177.641	-28.8566	44.8059	146.406	-25.6926	26.7192	
6	0.05	115.759	-47.6406	39.0314	96.3544	-58.0899	21.085	81.106	-69.1728	-4.61753	73.714	-81.1628	-21.5309	129.606	-41.5163	-35.5256	121.874	-47.6207	-63.6394	123.527	-59.2072	-86.3875	155.327	-41.624	-40.1239	156.33	-51.2742	-68.5064	155.538	-67.8591	-96.4895	177.322	-50.0093	-32.5237	181.331	-57.7372	-56.1604	182.202	-71.4607	-79.0157	192.874	-59.6736	-12.347	205.443	-69.0692	-34.3251	211.244	-82.8354	-56.456	174.225	-32.829	19.5199	175.144	-28.9234	47.1051	143.969	-26.131	27.5246	
7	0.0583333	114.798	-47.0418	43.3149	97.2421	-58.0089	20.7173	82.5658	-68.5967	-3.44135	74.0377	-79.7663	-23.5763	128.124	-40.0732	-35.8313	125.19	-48.961	-64.9364	121.132	-59.5954	-88.6635	157.75	-42.7961	-41.5177	156.731	-51.7657	-69.7417	158.414	-69.5046	-99.7945	178.134	-51.2279	-32.9848	182.467	-58.7828	-57.1048	179.557	-70.4001	-79.4344	193.344	-59.6786	-10.9207	202.605	-66.83	-31.7051	212.804	-80.3289	-54.2169	174.435	-32.2766	15.2252	176.49	-28.2551	49.0463	142.345	-24.4422	30.5173	
8	0.0666667	117.907	-47.7691	38.2617	97.8338	-58.3892	21.0034	85.1111	-68.3467	-1.83348	74.6042	-79.6771	-21.1552	130.505	-40.9158	-36.9236	124.27	-46.8944	-63.583	122.924	-57.3684	-84.4237	158.764	-41.9252	-40.1783	157.825	-52.4592	-71.5538	155.573	-65.5401	-94.6703	175.085	-49.1762	-29.3249	179.261	-57.0144	-54.6744	181.223	-72.0624	-81.8415	195.411	-59.6749	-12.5327	201.961	-67.8425	-34.4531	212.961	-80.9545	-50.9342	179.142	-32.9396	17.2302	180.186	-29.8437	46.3498	146.275	-25.8599	31.6834	
9	0.075	115.348	-46.1345	42.7446	97.521	-59.1058	20.0525	83.9446	-68.384	-2.41862	74.4777	-79.1333	-23.3915	132.715	-40.2137	-37.0109	122.858	-46.1925	-60.0675	121.589	-59.4899	-86.4225	155.794	-40.5564	-43.092	157.199	-51.7337	-71.3912	154.431	-64.9546	-95.811	176.143	-48.9752	-29.506	178.133	-56.5718	-54.8944	179.254	-71.533	-80.1431	197.521	-60.0266	-12.5169	203.018	-67.5639	-33.9239	208.856	-78.3193	-54.2698	173.75	-34.0379	19.8147	179.811	-30.623	45.5158	148.34	-24.0922	32.3558	
10	0.0833333	118.122	-46.3996	39.2717	95.9644	-58.1669	17.4264	81.8885	-69.7449	-4.82871	76.623	-80.706	-25.4649	130.947	-38.5877	-33.4486	122.982	-47.1027	-63.9352	125.096	-57.5625	-84.5067	158.484	-41.1419	-41.9121	160.002	-50.0887	-67.9949	156.422	-68.0917	-94.9556	178.189	-48.5488	-32.9572	180	-56.3324	-56.0165	179.47	-73.3046	-79.4278	198.045	-60.296	-12.7717	202.419	-67.4275	-34.3325	208.126	-81.7522	-57.2458	174.426	-33.0231	21.7571	178.753	-28.3378	49.6972	147.089	-26.0115	33.073	
11	0.0916667	117.1	-46.7446	43.3197	102.223	-58.1404	18.6997	85.3499	-69.3075	-9.37193	77.7849	-80.5597	-29.0415	130.091	-38.0365	-35.9772	126.364	-45.9998	-63.6837	123.321	-59.2916	-86.5632	156.293	-39.6056	-39.0282	158.231	-51.6354	-69.9316	152.07	-72.4567	-94.2926	177.889	-46.9021	-32.2963	180.87	-57.5832	-56.224	175.868	-80.0452	-78.3669	194.226	-58.0902	-17.3606	202.959	-69.4897	-37.9954	205.643	-86.8274	-55.0904	177.667	-32.9886	16.9146	178.75	-29.461	48.3775	144.079	-24.9637	29.0275	
